<?xml version="1.0" encoding="UTF-8"?>
<svg id="Layer_2" data-name="Layer 2" xmlns="http://www.w3.org/2000/svg" xmlns:xlink="http://www.w3.org/1999/xlink" viewBox="0 0 488.87 87.63">
  <defs>
    <style>
      .cls-1 {
        fill: #222;
      }

      .cls-1, .cls-2, .cls-3, .cls-4 {
        stroke-width: 0px;
      }

      .cls-2 {
        fill: none;
      }

      .cls-3 {
        fill: #677b4c;
      }

      .cls-4 {
        fill: #1c1018;
      }

      .cls-5 {
        clip-path: url(#clippath);
      }
    </style>
    <clipPath id="clippath">
      <path class="cls-2" d="m69.59,25.32c-8.72,0-15.79,8.21-15.79,18.35s7.07,18.35,15.79,18.35,15.79-8.21,15.79-18.35-7.07-18.35-15.79-18.35Z"/>
    </clipPath>
  </defs>
  <g id="Layer_1-2" data-name="Layer 1">
    <g>
      <path class="cls-1" d="m135.21,64.04v-4.6h3.44c.77,0,1.48-.15,2.13-.44.65-.3,1.16-.86,1.54-1.69.39-.83.58-2,.58-3.53V10.87c0-1.53-.21-2.67-.63-3.44-.41-.77-.94-1.29-1.6-1.55-.65-.26-1.38-.4-2.21-.4h-3.26V.88h27.33c6.13,0,11.37,1.15,15.7,3.45,4.34,2.3,7.67,5.71,10,10.22,2.33,4.51,3.49,10.13,3.49,16.85s-1.09,12.11-3.27,17.04c-2.18,4.92-5.44,8.76-9.78,11.5-4.33,2.74-9.74,4.11-16.22,4.11h-27.25Zm25.38-5.4c3.77,0,6.92-1.09,9.43-3.26,2.51-2.18,4.41-5.31,5.7-9.37,1.3-4.07,1.95-8.94,1.95-14.61s-.65-10.34-1.95-14.06c-1.29-3.72-3.2-6.51-5.7-8.36-2.51-1.86-5.62-2.79-9.33-2.79h-4.6v52.46h4.5Z"/>
      <path class="cls-1" d="m194.82,64.04v-4.6h.97c1,0,1.88-.18,2.65-.53.77-.35,1.46-.99,2.09-1.9.62-.92,1.22-2.26,1.81-4.03L220.3.88h11.42l17.42,52.73c.47,1.53,1.02,2.73,1.64,3.59.62.86,1.31,1.45,2.07,1.77.77.32,1.63.48,2.56.48h1.33v4.6h-27.42v-4.6h3.1c.94,0,1.79-.26,2.55-.79.77-.53,1.16-1.36,1.16-2.48,0-.47-.05-.97-.14-1.5-.08-.53-.2-1.04-.35-1.5-.15-.47-.28-.86-.4-1.16l-2.83-8.84h-19.9l-2.39,7.6c-.06.47-.18,1.02-.37,1.64-.17.62-.32,1.26-.44,1.91-.12.65-.18,1.21-.18,1.68,0,1.12.35,1.98,1.06,2.56.71.59,1.62.89,2.74.89h3.37v4.6h-21.5Zm19.46-26.1h16.55l-4.51-15.39c-.41-1.42-.82-2.86-1.24-4.34-.41-1.47-.81-2.95-1.19-4.42-.38-1.47-.72-2.86-1.02-4.16-.29,1.25-.65,2.57-1.06,3.99-.41,1.41-.82,2.84-1.24,4.29-.41,1.44-.85,2.81-1.31,4.11l-4.96,15.92h0Z"/>
      <path class="cls-1" d="m290.01,64.93c-6.84,0-12.52-1.36-17.04-4.07-4.51-2.72-7.89-6.51-10.12-11.38-2.24-4.86-3.36-10.57-3.36-17.11s1.16-11.99,3.49-16.85c2.33-4.86,5.79-8.67,10.38-11.41,4.6-2.75,10.27-4.12,17-4.12,4.54,0,8.34.46,11.41,1.38,3.06.91,5.38,2.14,6.94,3.67,1.56,1.53,2.35,3.24,2.35,5.12,0,2.06-.9,3.82-2.7,5.27-1.8,1.45-4.47,2.17-8.01,2.17,0-2.36-.37-4.43-1.11-6.24-.74-1.8-1.86-3.21-3.36-4.24-1.5-1.03-3.44-1.55-5.8-1.55-3.95,0-7.13,1.03-9.55,3.1-2.42,2.06-4.19,5.09-5.31,9.07-1.12,3.98-1.68,8.86-1.68,14.64s.57,10.57,1.72,14.56c1.15,3.98,3.03,7,5.62,9.06,2.59,2.06,6.01,3.1,10.26,3.1,1,0,2-.06,3-.18,1.01-.12,1.98-.29,2.92-.53v-13.18c0-1.59-.21-2.84-.62-3.75-.41-.92-1.04-1.55-1.9-1.91-.86-.36-1.93-.53-3.23-.53h-1.15v-4.6h25.83v4.6h-.97c-1.13,0-2.04.19-2.75.57-.7.38-1.22,1.05-1.54,1.99-.33.95-.49,2.27-.49,3.98v14.68c-3.19,1.54-6.43,2.71-9.73,3.5-3.3.79-6.81,1.19-10.52,1.19Z"/>
      <path class="cls-1" d="m320.88,64.04v-4.6h3.36c.83,0,1.56-.13,2.21-.4.65-.27,1.16-.79,1.54-1.55.39-.76.58-1.86.58-3.27V11.15c0-1.65-.21-2.88-.63-3.67-.41-.8-.93-1.33-1.54-1.6-.62-.26-1.37-.4-2.26-.4h-3.26V.88h45.91l.35,16.19h-5.84l-.45-4.07c-.06-1.47-.31-2.71-.75-3.71-.44-1.01-1.04-1.77-1.81-2.3-.77-.53-1.77-.8-3-.8h-13.53v22.21h19.55v5.22h-19.55v25.12h16c1.24,0,2.25-.29,3.01-.89.76-.59,1.37-1.4,1.8-2.43.44-1.04.76-2.2.94-3.49l.62-4.08h5.76l-.53,16.19h-48.47Z"/>
      <path class="cls-1" d="m374.84,64.04v-4.6h3c.94,0,1.75-.13,2.43-.4.68-.27,1.22-.82,1.64-1.64.42-.83.63-2.07.63-3.72V10.87c0-1.59-.21-2.77-.63-3.53-.41-.77-.96-1.27-1.64-1.5-.68-.23-1.43-.35-2.25-.35h-3.18V.88h19.02l28.48,44.86V10.87c0-1.53-.21-2.69-.62-3.49-.41-.8-.94-1.31-1.6-1.54-.65-.23-1.38-.35-2.21-.35h-3.18V.88h21.49v4.61h-3.18c-.83,0-1.58.13-2.26.4-.68.27-1.2.81-1.59,1.64-.38.83-.57,2.06-.57,3.71v52.81h-8.32l-31.57-49.36v39.01c0,1.66.17,2.9.52,3.72.35.82.87,1.37,1.55,1.64.68.27,1.46.4,2.35.4h3.27v4.6h-21.58Z"/>
      <path class="cls-1" d="m439.86,64.04v-4.6h3.36c.83,0,1.56-.13,2.21-.4.65-.27,1.16-.79,1.54-1.55.39-.76.58-1.86.58-3.27V11.15c0-1.65-.21-2.88-.63-3.67-.41-.8-.92-1.33-1.54-1.6-.62-.26-1.37-.4-2.26-.4h-3.26V.88h45.91l.35,16.19h-5.84l-.45-4.07c-.06-1.47-.31-2.71-.75-3.71-.44-1.01-1.04-1.77-1.81-2.3-.77-.53-1.77-.8-3-.8h-13.53v22.21h19.55v5.22h-19.55v25.12h16c1.24,0,2.25-.29,3.01-.89.76-.59,1.37-1.4,1.8-2.43.44-1.04.76-2.2.94-3.49l.62-4.08h5.76l-.53,16.19h-48.47,0Z"/>
      <path class="cls-3" d="m6.83,76.72c1.74,0,3.08.45,3.99,1.36.92.9,1.39,2.25,1.39,4.02s-.46,3.12-1.39,4.02c-.92.9-2.25,1.36-3.99,1.36h-3.87v-10.76h3.87Zm-.13,8.98c1.11,0,1.94-.28,2.49-.84.55-.57.82-1.49.82-2.75s-.28-2.17-.82-2.73c-.55-.57-1.38-.86-2.49-.86h-1.62v7.18h1.62Z"/>
      <rect class="cls-3" x="14.46" y="76.72" width="2.13" height="10.76"/>
      <path class="cls-3" d="m23.21,87.63c-.9,0-1.68-.2-2.34-.62-.65-.41-1.16-1.03-1.51-1.86-.35-.83-.53-1.85-.53-3.07s.21-2.25.64-3.08c.43-.83,1.02-1.44,1.78-1.85.76-.4,1.64-.6,2.64-.6s1.9.19,2.63.57c.73.38,1.24.95,1.53,1.7l-1.55.95h-.18c-.22-.49-.54-.84-.94-1.06-.4-.22-.89-.33-1.49-.33-.93,0-1.63.3-2.13.89-.5.58-.74,1.52-.74,2.82s.23,2.25.69,2.84c.46.59,1.14.89,2.03.89.78,0,1.35-.17,1.72-.52.37-.36.55-.88.55-1.56v-.47h-2.54v-1.72h4.65v5.93h-2.02v-1.44l-.16-.02c-.22.52-.56.92-1.01,1.2-.45.28-1.02.42-1.72.42h0Z"/>
      <rect class="cls-3" x="30.6" y="76.72" width="2.13" height="10.76"/>
      <path class="cls-3" d="m42.76,76.72v1.79h-3.11v8.97h-2.12v-8.97h-3.11v-1.79s8.33,0,8.33,0Z"/>
      <path class="cls-3" d="m52.41,87.48h-2.24l-.8-2.48h-4.12l-.81,2.48h-2.18l3.71-10.76h2.73l3.71,10.76h0Zm-5.21-8.51l-1.38,4.24h2.95l-1.39-4.24h-.19,0Z"/>
      <path class="cls-3" d="m56.1,76.72v8.98h4.84v1.78h-6.97v-10.76h2.13Z"/>
      <rect class="cls-3" x="62.68" y="76.72" width="2.13" height="10.76"/>
      <path class="cls-3" d="m70.97,87.63c-.75,0-1.41-.09-1.99-.27-.58-.19-1.06-.43-1.45-.73-.39-.3-.69-.63-.89-.99l1.17-1.43h.18c.33.49.74.87,1.23,1.16.5.28,1.08.42,1.75.42.57,0,1-.12,1.28-.35.29-.24.44-.57.44-.99,0-.26-.05-.47-.15-.64-.09-.17-.24-.32-.46-.45-.22-.13-.51-.23-.88-.31l-1.38-.32c-.97-.22-1.69-.59-2.16-1.1-.47-.51-.71-1.18-.71-2,0-.61.15-1.14.45-1.6.3-.46.75-.82,1.32-1.07.58-.26,1.28-.39,2.1-.39s1.53.11,2.13.32c.59.22,1.09.55,1.5,1l-1.05,1.45h-.19c-.31-.32-.66-.56-1.05-.72-.39-.16-.83-.24-1.33-.24-.58,0-1.03.1-1.33.31-.31.2-.46.48-.46.84s.11.61.32.81c.21.2.58.36,1.11.47l1.42.29c1.04.22,1.8.6,2.26,1.13.47.53.71,1.22.71,2.06,0,.67-.15,1.26-.44,1.76-.29.5-.72.88-1.3,1.16-.58.27-1.3.41-2.15.41Z"/>
      <path class="cls-3" d="m78.97,82.76v2.94h5.13v1.78h-7.26v-10.76h7.14v1.78h-5.01v2.52h4.38v1.73h-4.38Z"/>
      <path class="cls-3" d="m86.09,87.48v-10.76h4.32c1.11,0,1.95.26,2.51.77.57.52.86,1.22.86,2.13,0,.65-.17,1.19-.5,1.61-.33.42-.82.73-1.47.95v.16c.33.15.61.37.81.66.21.29.41.72.59,1.28l1.07,3.21h-2.18l-1.05-3.21c-.11-.33-.24-.58-.38-.75-.13-.18-.3-.31-.51-.4-.21-.08-.48-.13-.81-.13h-1.14v4.48h-2.13Zm4.07-6.16c1.03,0,1.54-.48,1.54-1.45s-.52-1.46-1.54-1.46h-1.94v2.91h1.94Z"/>
      <rect class="cls-3" x="96.14" y="76.72" width="2.13" height="10.76"/>
      <path class="cls-3" d="m103.13,87.48h-2.06v-10.76h2.44l4.32,6.93.19-.03v-6.9h2.04v10.76h-2.18l-4.57-7.4-.18.03v7.37h0Z"/>
      <path class="cls-3" d="m116.68,87.63c-.9,0-1.68-.2-2.34-.62-.65-.41-1.16-1.03-1.51-1.86-.36-.83-.53-1.85-.53-3.07s.21-2.25.64-3.08c.43-.83,1.02-1.44,1.78-1.85.76-.4,1.64-.6,2.64-.6s1.9.19,2.63.57c.73.38,1.24.95,1.53,1.7l-1.55.95h-.18c-.22-.49-.54-.84-.94-1.06-.4-.22-.89-.33-1.49-.33-.93,0-1.63.3-2.13.89-.5.58-.74,1.52-.74,2.82s.23,2.25.69,2.84c.46.59,1.14.89,2.03.89.78,0,1.35-.17,1.72-.52.37-.36.55-.88.55-1.56v-.47h-2.54v-1.72h4.65v5.93h-2.02v-1.44l-.16-.02c-.22.52-.56.92-1.01,1.2-.45.28-1.02.42-1.72.42h0Z"/>
      <path class="cls-3" d="m132.09,87.63c-.98,0-1.85-.2-2.61-.61-.75-.4-1.34-1.02-1.77-1.85-.42-.83-.64-1.86-.64-3.09s.21-2.26.64-3.09c.43-.83,1.02-1.44,1.77-1.84.76-.4,1.63-.6,2.61-.6s1.86.2,2.61.6c.75.4,1.34,1.01,1.76,1.84.42.83.64,1.86.64,3.09s-.21,2.26-.64,3.1c-.42.83-1.01,1.44-1.76,1.85-.75.4-1.62.59-2.61.59h0Zm0-1.85c.92,0,1.62-.29,2.1-.88.48-.59.72-1.53.72-2.81s-.24-2.22-.72-2.8c-.48-.59-1.18-.89-2.1-.89s-1.62.3-2.11.89c-.48.58-.72,1.52-.72,2.8s.24,2.23.72,2.81c.48.58,1.19.88,2.11.88Z"/>
      <path class="cls-3" d="m143.17,87.63c-.9,0-1.68-.2-2.34-.62-.65-.41-1.16-1.03-1.51-1.86-.35-.83-.53-1.85-.53-3.07s.21-2.25.64-3.08c.43-.83,1.02-1.44,1.78-1.85.76-.4,1.64-.6,2.64-.6s1.9.19,2.63.57c.73.38,1.24.95,1.53,1.7l-1.55.95h-.18c-.22-.49-.54-.84-.94-1.06-.4-.22-.89-.33-1.49-.33-.92,0-1.63.3-2.13.89-.5.58-.74,1.52-.74,2.82s.23,2.25.69,2.84c.46.59,1.14.89,2.03.89.78,0,1.35-.17,1.72-.52.37-.36.55-.88.55-1.56v-.47h-2.54v-1.72h4.65v5.93h-2.02v-1.44l-.16-.02c-.22.52-.56.92-1.01,1.2-.45.28-1.02.42-1.72.42h0Z"/>
      <path class="cls-3" d="m161.33,76.72v1.79h-3.11v8.97h-2.12v-8.97h-3.11v-1.79h8.33Z"/>
      <path class="cls-3" d="m165.15,82.76v2.94h5.13v1.78h-7.26v-10.76h7.14v1.78h-5.02v2.52h4.38v1.73h-4.38Z"/>
      <path class="cls-3" d="m172.27,87.48v-10.76h2.13v4.4h.24l3.59-4.4h2.18v.19l-3.96,4.89,4.37,5.49v.19h-2.4l-3.77-4.64h-.24v4.64h-2.13Z"/>
      <path class="cls-3" d="m184.27,87.48h-2.06v-10.76h2.44l4.32,6.93.19-.03v-6.9h2.04v10.76h-2.18l-4.57-7.4-.18.03v7.37Z"/>
      <path class="cls-3" d="m198.45,87.63c-.98,0-1.85-.2-2.61-.61-.75-.4-1.34-1.02-1.77-1.85-.42-.83-.64-1.86-.64-3.09s.21-2.26.64-3.09c.43-.83,1.02-1.44,1.77-1.84.76-.4,1.63-.6,2.61-.6s1.86.2,2.61.6c.75.4,1.34,1.01,1.76,1.84.42.83.64,1.86.64,3.09s-.21,2.26-.64,3.1c-.42.83-1.01,1.44-1.76,1.85-.75.4-1.62.59-2.61.59h0Zm0-1.85c.92,0,1.62-.29,2.1-.88.48-.59.72-1.53.72-2.81s-.24-2.22-.72-2.8c-.48-.59-1.18-.89-2.1-.89s-1.62.3-2.11.89c-.48.58-.72,1.52-.72,2.8s.24,2.23.72,2.81c.49.58,1.19.88,2.11.88Z"/>
      <path class="cls-3" d="m207.83,76.72v8.98h4.84v1.78h-6.97v-10.76h2.13Z"/>
      <path class="cls-3" d="m218.59,87.63c-.98,0-1.85-.2-2.61-.61-.75-.4-1.34-1.02-1.77-1.85-.42-.83-.64-1.86-.64-3.09s.21-2.26.64-3.09c.43-.83,1.02-1.44,1.77-1.84.76-.4,1.63-.6,2.61-.6s1.86.2,2.61.6c.75.4,1.34,1.01,1.76,1.84.42.83.64,1.86.64,3.09s-.21,2.26-.64,3.1c-.42.83-1.01,1.44-1.76,1.85-.75.4-1.62.59-2.61.59h0Zm0-1.85c.92,0,1.62-.29,2.1-.88.48-.59.72-1.53.72-2.81s-.24-2.22-.72-2.8c-.48-.59-1.18-.89-2.1-.89s-1.62.3-2.11.89c-.48.58-.72,1.52-.72,2.8s.24,2.23.72,2.81c.48.58,1.19.88,2.11.88Z"/>
      <path class="cls-3" d="m229.67,87.63c-.9,0-1.68-.2-2.34-.62-.65-.41-1.16-1.03-1.51-1.86-.35-.83-.53-1.85-.53-3.07s.21-2.25.64-3.08c.43-.83,1.02-1.44,1.78-1.85.76-.4,1.64-.6,2.64-.6s1.9.19,2.63.57c.73.38,1.24.95,1.53,1.7l-1.55.95h-.18c-.22-.49-.54-.84-.94-1.06-.4-.22-.89-.33-1.49-.33-.93,0-1.63.3-2.13.89-.5.58-.74,1.52-.74,2.82s.23,2.25.69,2.84c.46.59,1.14.89,2.03.89.78,0,1.35-.17,1.72-.52.37-.36.55-.88.55-1.56v-.47h-2.54v-1.72h4.65v5.93h-2.02v-1.44l-.16-.02c-.22.52-.56.92-1.01,1.2-.45.28-1.02.42-1.72.42h0Z"/>
      <rect class="cls-3" x="237.06" y="76.72" width="2.13" height="10.76"/>
      <path class="cls-4" d="m17.08,63.8c-3.36,0-6.32-.8-8.88-2.4-2.56-1.61-4.57-4.02-6.03-7.26-1.45-3.23-2.17-7.24-2.17-12.01s.76-8.78,2.27-12.02c1.51-3.25,3.6-5.67,6.27-7.28,2.66-1.61,5.75-2.41,9.26-2.41,2.78,0,5.28.53,7.5,1.57,2.22,1.05,4.13,2.77,5.72,5.17l.8-.16V4.44h6.17v58.57h-6.17v-6.1l-.8-.15c-1.36,2.06-3.21,3.75-5.55,5.07-2.34,1.31-5.14,1.97-8.39,1.97h0Zm1.94-5.53c3.88,0,6.99-1.33,9.31-3.99,2.33-2.67,3.49-6.72,3.49-12.15s-1.17-9.51-3.49-12.18c-2.32-2.66-5.43-3.99-9.31-3.99s-7.12,1.3-9.29,3.9c-2.17,2.6-3.25,6.69-3.25,12.27,0,10.76,4.18,16.14,12.54,16.14Z"/>
      <path class="cls-3" d="m69.29,63.8c-3.94,0-7.37-.83-10.29-2.49-2.91-1.67-5.16-4.12-6.74-7.37-1.58-3.25-2.37-7.18-2.37-11.8s.79-8.56,2.37-11.81c1.58-3.26,3.82-5.72,6.74-7.39,2.92-1.67,6.35-2.5,10.29-2.5s7.37.83,10.28,2.5c2.92,1.67,5.17,4.13,6.75,7.39,1.58,3.25,2.37,7.19,2.37,11.81s-.79,8.56-2.37,11.8c-1.58,3.25-3.83,5.7-6.75,7.37-2.91,1.66-6.34,2.49-10.28,2.49Zm0-5.53c4.16,0,7.35-1.31,9.56-3.94,2.21-2.63,3.32-6.69,3.32-12.2s-1.11-9.61-3.32-12.23c-2.21-2.63-5.4-3.94-9.56-3.94s-7.37,1.32-9.59,3.96c-2.22,2.64-3.33,6.7-3.33,12.21s1.11,9.57,3.33,12.2c2.22,2.63,5.42,3.94,9.59,3.94h0Z"/>
      <path class="cls-4" d="m121.52,56.37l1.97,4.43c-.98.99-2.27,1.73-3.88,2.23-1.61.51-3.34.76-5.21.76-7.98,0-11.97-4.04-11.97-12.12v-25.42h-7.27v-5.08h7.27v-8.83l6.17-1.02v9.85h13.45v5.08h-13.45v24.82c0,4.8,2.09,7.19,6.26,7.19,2.27,0,4.23-.63,5.87-1.9h.79,0Z"/>
      <g class="cls-5">
        <rect class="cls-3" x="53.81" y="25.32" width="31.57" height="36.75"/>
      </g>
    </g>
  </g>
</svg>